<?xml version="1.0" encoding="utf-8"?>
<!-- Generator: Adobe Illustrator 22.0.1, SVG Export Plug-In . SVG Version: 6.00 Build 0)  -->
<svg version="1.1" id="Ebene_1" xmlns="http://www.w3.org/2000/svg" xmlns:xlink="http://www.w3.org/1999/xlink" x="0px" y="0px"
	 viewBox="0 0 1000 1000" style="enable-background:new 0 0 1000 1000;" xml:space="preserve">
<style type="text/css">
	.st0{fill:#ED1C24;}
</style>
<g>
	<path class="st0" d="M486.1,703c-8.1-8-18.3-19.2-25.7-35.6c-7.3-16.1-10.8-34.9-10.8-57.3v-60.5v-15h16.3h66.8
		c-6.6-31.6-35-40.9-52-43.8c16.7-0.7,41.3-9.4,50.1-35.5h-64.8h-16.3v-15v-50.1c0-22.4,3.5-41.1,10.8-57.3
		c7.4-16.4,17.6-27.6,25.7-35.6c2.3-2.3,4.7-4.4,7.1-6.5c-16.5-10-37-15.6-59.3-15.6c-43.2,0-234.9,0-308.8,0
		c-41.5,0-70.8,10.4-92.9,32.3C14.8,324.6,0,345.9,0,390.2c0,33.7,0,50.1,0,50.1h147.8c0,0,0-14.1,0-29.6c0-15.5,6.6-23.6,23.1-23.6
		c21.9,0,164.8,0,205.8,0c41,0,39.5,55.9,0,55.9c-39.5,0-166,0-166,0v109.2c0,0,124.6,0,164.1,0s41,61.1,0,61.1s-182.1,0-204,0
		c-16.4,0-23.1-8.1-23.1-23.6c0-15.5,0-40,0-40H0c0,0,0,26.8,0,60.5c0,44.2,14.8,65.5,32.1,82.6c22.1,21.9,48.7,32.3,90.2,32.3
		c73.9,0,268.4,0,311.5,0c22.4,0,42.8-5.5,59.3-15.6C490.8,707.4,488.4,705.3,486.1,703z"/>
	<path class="st0" d="M1000,433.6c0-24.4,0-43.9,0-70.1c0-53.4-44.1-88.2-100.2-88.2c-43.2,0-234.9,0-308.8,0
		c-41.5,0-70.8,10.4-92.9,32.3c-17.3,17.1-32.1,38.4-32.1,82.6c0,33.7,0,50.1,0,50.1h147.8c0,0,0-14.1,0-29.6
		c0-15.5,6.6-23.6,23-23.6c22,0,164.8,0,205.8,0c41,0,39.5,55.9,0,55.9s-165.9,0-165.9,0v109.2c0,0,124.6,0,164.1,0
		c39.5,0,41,61.1,0,61.1c-41,0-182,0-204,0c-16.4,0-23-8.1-23-23.6c0-15.5,0-40,0-40H465.9c0,0,0,26.8,0,60.5
		c0,44.2,14.8,65.5,32.1,82.6c22.1,21.9,48.7,32.3,90.2,32.3c73.9,0,268.3,0,311.5,0c56.1,0,100.2-34.8,100.2-88.2
		c0-26.3,0-63.7,0-88.1c0-43.2-34.1-54.7-53.4-58C967.2,489.9,1000,476.8,1000,433.6z"/>
</g>
</svg>
